<?xml version="1.0" standalone="no"?>
<!DOCTYPE svg PUBLIC "-//W3C//DTD SVG 20010904//EN"
 "http://www.w3.org/TR/2001/REC-SVG-20010904/DTD/svg10.dtd">
<svg version="1.0" xmlns="http://www.w3.org/2000/svg"
 width="259.000000pt" height="149.000000pt" viewBox="0 0 259.000000 149.000000"
 preserveAspectRatio="xMidYMid meet">
<metadata>
Created by potrace 1.15, written by Peter Selinger 2001-2017
</metadata>
<g transform="translate(0.000000,149.000000) scale(0.100000,-0.100000)"
fill="#000000" stroke="none">
<path d="M1195 1348 c-50 -51 -126 -130 -170 -175 l-80 -83 349 0 c232 0 347
3 344 10 -5 17 -332 340 -343 340 -6 0 -51 -42 -100 -92z"/>
<path d="M752 887 c-78 -78 -142 -146 -142 -150 0 -4 306 -7 680 -7 374 0 680
3 680 8 0 4 -64 71 -143 150 l-142 142 -395 0 -395 0 -143 -143z"/>
<path d="M302 377 c-149 -149 -272 -275 -272 -280 0 -4 569 -7 1265 -7 728 0
1265 4 1265 9 0 5 -124 131 -276 280 l-275 271 -717 0 -717 0 -273 -273z"/>
</g>
</svg>
